<?xml version="1.0" standalone="no"?>
<!DOCTYPE svg PUBLIC "-//W3C//DTD SVG 20010904//EN"
 "http://www.w3.org/TR/2001/REC-SVG-20010904/DTD/svg10.dtd">
<svg version="1.0" xmlns="http://www.w3.org/2000/svg"
 width="900.000000pt" height="900.000000pt" viewBox="0 0 900.000000 900.000000"
 preserveAspectRatio="xMidYMid meet">
<metadata>
Created by potrace 1.14, written by Peter Selinger 2001-2017
</metadata>
<g transform="translate(0.000000,900.000000) scale(0.100000,-0.100000)"
fill="#000000" stroke="none">
<path d="M1488 6839 c-106 -16 -177 -52 -264 -132 -31 -27 -134 -168 -134
-181 0 -4 -11 -23 -23 -44 -34 -53 -105 -238 -172 -442 -119 -366 -161 -467
-238 -570 -22 -30 -43 -57 -47 -60 -3 -3 -30 -39 -60 -80 -30 -41 -57 -77 -60
-80 -6 -6 -139 -215 -156 -245 -57 -104 -133 -255 -129 -255 3 0 -3 -17 -13
-37 -46 -92 -75 -264 -57 -343 31 -144 179 -239 328 -211 26 4 49 5 52 2 6
-10 14 -122 20 -276 25 -629 41 -805 100 -1096 13 -66 59 -211 89 -279 61
-142 133 -237 226 -300 83 -56 147 -75 260 -75 85 0 101 3 153 29 177 90 215
284 83 424 -91 96 -122 160 -147 297 -14 77 -18 402 -6 477 l8 47 203 -2 202
-2 80 -39 c71 -35 218 -131 405 -264 257 -182 422 -294 514 -347 28 -16 66
-40 85 -53 99 -66 409 -200 501 -216 19 -3 52 -9 74 -13 129 -23 258 10 331
83 55 54 76 104 76 179 0 120 -58 211 -192 300 -70 47 -493 265 -514 265 -12
0 -461 227 -520 263 l-59 35 69 36 c176 91 362 211 584 375 80 60 82 61 150
117 453 371 789 786 915 1129 10 28 23 56 28 63 5 6 7 12 4 12 -4 0 1 19 9 43
35 98 48 191 48 342 1 193 -19 288 -95 441 -101 206 -273 358 -515 455 -42 17
-84 32 -93 34 -9 2 -52 13 -96 24 -44 11 -109 24 -145 28 -121 15 -448 8 -550
-12 -10 -2 -35 -6 -55 -9 -21 -4 -70 -13 -109 -22 -39 -8 -82 -17 -96 -20 -86
-16 -433 -130 -626 -204 l-71 -27 0 91 c0 50 -2 100 -5 111 -17 66 -24 84 -50
122 -62 92 -171 132 -300 112z m992 -780 c91 -21 126 -69 122 -171 -3 -108
-120 -321 -245 -449 -96 -98 -245 -112 -330 -31 -38 37 -56 76 -69 154 -22
127 25 266 125 367 67 68 116 96 208 121 85 22 125 24 189 9z m-732 -142 c33
-30 53 -109 53 -210 0 -247 -111 -489 -236 -513 -77 -14 -186 61 -236 162 -19
39 -23 65 -24 129 0 70 4 89 32 147 37 79 71 126 131 186 62 61 130 105 182
118 51 13 65 10 98 -19z m1281 -154 c75 -48 119 -148 126 -284 9 -174 -96
-348 -255 -422 -54 -26 -78 -31 -141 -32 -88 0 -132 19 -168 71 -79 115 -58
241 74 444 126 193 273 283 364 223z m-798 -572 c68 -26 134 -88 165 -155 28
-62 33 -93 35 -222 1 -97 13 -184 42 -304 36 -153 -29 -304 -167 -385 -48 -28
-132 -52 -173 -49 -117 8 -177 40 -292 153 -93 93 -152 131 -245 158 -110 33
-184 92 -234 187 -24 45 -27 62 -27 146 0 84 3 102 28 152 55 111 165 189 288
203 85 9 188 41 332 103 87 37 171 42 248 13z m1005 -196 c21 -13 29 -34 38
-100 6 -42 -25 -158 -64 -238 -48 -101 -130 -192 -206 -230 -45 -23 -62 -26
-135 -23 -176 5 -278 105 -235 231 20 61 73 132 142 191 177 153 374 226 460
169z"/>
<path d="M4845 5884 c-143 -36 -248 -159 -324 -381 -30 -88 -64 -229 -76 -313
-3 -25 -8 -52 -10 -60 -5 -19 -13 -89 -21 -166 -6 -67 -6 -341 0 -394 18 -155
29 -217 57 -320 54 -205 131 -345 253 -465 115 -111 238 -164 399 -170 284
-10 483 136 752 550 55 84 59 88 66 64 15 -57 33 -237 33 -334 0 -194 -45
-431 -106 -553 -83 -168 -208 -238 -442 -248 -154 -7 -203 -34 -253 -143 -22
-46 -25 -63 -20 -130 6 -103 34 -160 116 -241 110 -108 226 -150 396 -144 319
12 568 189 733 519 71 142 119 314 139 500 14 123 6 594 -12 743 -2 15 -6 61
-10 102 -14 159 -15 176 -20 210 -2 19 -7 60 -10 90 -3 30 -7 64 -9 75 -2 11
-7 56 -11 100 -4 44 -8 82 -10 85 -1 3 -6 36 -10 73 -3 37 -8 76 -10 85 -1 9
-6 44 -9 77 -4 33 -9 71 -11 85 -2 14 -6 46 -9 73 -3 26 -9 68 -12 95 -3 26
-7 58 -9 72 -2 14 -7 52 -10 85 -19 178 -63 263 -161 311 -45 22 -62 25 -106
20 -29 -3 -54 -6 -56 -6 -1 0 -23 -19 -47 -41 -68 -63 -75 -83 -155 -444 -17
-77 -33 -150 -36 -161 -15 -78 -73 -282 -114 -406 -169 -510 -397 -736 -558
-553 -33 38 -75 129 -86 191 -18 93 -23 252 -12 364 7 74 18 164 22 185 3 11
7 38 10 60 3 22 9 60 14 85 6 25 12 61 15 80 3 19 16 87 30 150 60 289 61 301
19 387 -26 54 -80 106 -143 138 -34 17 -129 28 -166 19z"/>
<path d="M7213 5606 c-85 -27 -153 -86 -215 -186 -49 -77 -111 -228 -133 -320
0 -3 -4 -14 -8 -25 -7 -22 -11 -43 -33 -160 -47 -259 -36 -537 31 -741 52
-156 153 -298 255 -357 94 -53 232 -73 331 -47 86 23 181 82 264 165 94 93
150 167 304 398 61 92 115 167 119 167 4 0 29 -57 56 -128 130 -341 260 -528
404 -582 124 -47 242 9 285 136 19 52 10 86 -59 224 -126 256 -177 403 -218
635 -9 48 -16 177 -21 360 -6 222 -30 312 -101 374 -72 63 -185 66 -271 7 -87
-59 -137 -134 -270 -406 -68 -140 -136 -277 -150 -305 -60 -114 -152 -251
-213 -315 -95 -99 -138 -103 -161 -17 -10 39 -7 182 7 267 16 103 27 163 45
235 10 44 21 89 24 100 2 11 11 54 20 95 35 161 24 262 -39 344 -58 76 -164
110 -253 82z"/>
</g>
</svg>
